<svg xmlns="http://www.w3.org/2000/svg" width="64.2" height="49.9" viewBox="0 0 64.2 49.9">
  <path id="ES" d="M976.6,223.4l2,2.4,9.5,2.9,1.9-1.4,5.8,2.9,5.9-.8.4,3.7-4.9,4.2-6.6,1.4-.5,2.1-3.2,3.5-2,5.2,2,3.7-3,2.8-1.2,4.2-4,1.3-3.7,4.9-6.8.1-5-.1-3.4,2.2-2.1,2.4-2.6-.5-1.9-2.2-1.4-3.6-4.9-1-.4-2.2,2-2.4.8-1.7-1.8-1.9,1.6-4.2-2-3.8,2.3-.5.3-3.1.8-.9.3-5,2.4-1.7-1.3-3.2-3.1-.2-.9.8h-3l-1.2-3.1-2.2.9-1.9,1.6.5-4.5-2-2.7,7.4-4.6,6.2,1.1h6.9l5.4,1.1,4.3-.4,8.3.3Z" transform="translate(-938 -221.2)" fill="#2c4370" stroke="#000" stroke-linecap="round" stroke-linejoin="round" stroke-width="0.2"/>
</svg>
