<svg xmlns="http://www.w3.org/2000/svg" width="168.1" height="65.7" viewBox="0 0 168.1 65.7">
  <path id="MN" d="M1496.2,181.5l4-1.2,5.7-.8,5.4.9,6.6,2.9,4.9,3.2h4.6l6.8,1,3.6-1.6,5.9-1,4.4-4.4,3.4.7,3.9,2.1,5.6-.6.6,4.7.3,6.3,2.8,2.5,2.3-.8,5.5,1,2.5-2.3,5.2,2,7.2,4.4.8,2.2-4.4-.7-6.8.8-2.5,1.8-1.3,4.2-6.4,2.4-3.2,3.4-5.9-1.3-3.2-.6-.5,4.1,2.9,2.4,1.9,2.1-2.4,2.2-2,3.4-4.9,2.2-7.6.2-7.2,2.2-4.4,3.4L1527,233h-6.2l-9.4-3.9-5.6-.9-6.4.9-11.3-1.5-5.6.2-4.7-3.8-5-5.8-3.4-.7-8-4-7.2-.8-6.5-1.1-3-2.8-1.4-7.3-5.8-5.1-8.2-2.3-5.7-3.3-3.3-4.4,4.7-1.1,6.7-5.3,5.9-2.9,5.3,1.9,5.2.1,4.8,2.9,5,.2,8,1.6,2.4-4.4-4-3.6,1.3-6.4,7,2.5,4.8.8,6.7,1.6,3.6,4.6,8.5,2.6Z" transform="translate(-1420.2 -169.3)" fill="#2c4370" stroke="#000" stroke-linecap="round" stroke-linejoin="round" stroke-width="0.2"/>
</svg>
